<?xml version="1.0" encoding="UTF-8"?>
<svg id="_레이어_2" data-name="레이어_2" xmlns="http://www.w3.org/2000/svg" viewBox="0 0 9.17 11.21">
  <defs>
    <style>
      .cls-1 {
        fill: none;
        stroke: #828384;
        stroke-miterlimit: 10;
        stroke-width: .4px;
      }
    </style>
  </defs>
  <g id="_라인" data-name="라인">
    <path class="cls-1" d="M4.59,2.11s-1.96,0-2.39,0-.54.1-.6.35-.33,2.02-.35,2.39.34.51.65.51,2.69,0,2.69,0h2.69c.31,0,.67-.13.65-.51s-.29-2.14-.35-2.39-.17-.36-.6-.35-2.39,0-2.39,0Z"/>
    <circle class="cls-1" cx="1.85" cy="7.5" r=".64"/>
    <circle class="cls-1" cx="7.28" cy="7.5" r=".64"/>
    <path class="cls-1" d="M1.17,10.37c0,.36.29.64.64.64s.64-.29.64-.64v-.86l4.25-.02v.88c0,.36.29.64.64.64s.64-.29.64-.64v-.86h0s.65,0,.65,0c.19,0,.34-.15.34-.34v-4.27s0-.02,0-.04c-.03-.2-.32-2.47-.4-3.11s-.88-1.06-1.46-1.24-1.9-.31-2.52-.31c-.62,0-1.93.13-2.52.31S.69,1.08.6,1.75s-.38,2.91-.4,3.11c0,.01,0,.02,0,.04v4.27c0,.19.15.34.34.34h.63v.87Z"/>
  </g>
</svg>